# xmcd
#
# Track frame offsets: 
#        150
#        12623
#        27815
#        40132
#        55971
#        68519
#        83778
#        102096
#        115808
#        127686
#        141056
#        154670
#
# Disc length: 2243 seconds
#
# Revision: 2
# Processed by: cddbd v1.5.2PL0 Copyright (c) Steve Scherf et al.
# Submitted via: ExactAudioCopyFreeDBPlugin 1.0
#
DISCID=8e08c10c
DTITLE=Cornelius Brothers and Sister Rose - Classic Masters
DYEAR=2002
DGENRE=Soul
TTITLE0=Treat Her Like a Lady
TTITLE1=Too Late to Turn Back Now
TTITLE2=I Just Can't Stop Loving You
TTITLE3=Big Time Lover
TTITLE4=Ain't No Sunshine
TTITLE5=Since I Found My Baby
TTITLE6=Go to Testify (Love)
TTITLE7=Don't Ever Be Lonely
TTITLE8=I'm Never Gonna Be Alone Anymore
TTITLE9=Good Loving Don't Come Easy
TTITLE10=I'm So Glad (To Be Loved By You)
TTITLE11=Let Me Down Easy
EXTD=
EXTT0=
EXTT1=
EXTT2=
EXTT3=
EXTT4=
EXTT5=
EXTT6=
EXTT7=
EXTT8=
EXTT9=
EXTT10=
EXTT11=
PLAYORDER=
